<?xml version="1.0" encoding="UTF-8"?><svg id="a" xmlns="http://www.w3.org/2000/svg" viewBox="0 0 381.68 226.7"><defs><style>.b{fill:#fff;}</style></defs><path class="b" d="M377.06,24.69l-20.07-20.07c-2.98-2.98-6.95-4.62-11.16-4.62s-8.18,1.64-11.16,4.62L192.1,147.18c-.43,.43-.93,.52-1.26,.52s-.83-.09-1.26-.52L47.02,4.62c-2.98-2.98-6.95-4.62-11.16-4.62s-8.18,1.64-11.16,4.62L4.62,24.69C1.64,27.68,0,31.64,0,35.86c0,4.22,1.64,8.18,4.62,11.16L179.68,222.07c2.98,2.98,6.95,4.62,11.16,4.62s8.18-1.64,11.16-4.62L377.06,47.02c6.16-6.16,6.16-16.17,0-22.33Z"/></svg>