<?xml version="1.0" encoding="UTF-8"?><svg id="a" xmlns="http://www.w3.org/2000/svg" viewBox="0 0 289.13 384"><defs><style>.b{fill:#fff;}</style></defs><path class="b" d="M267.99,384H20.41C4.21,379.56-.03,367.9,0,355.07,.26,245.62,.15,136.17,.15,26.71,.15,11.12,10.32,1.01,25.99,1.01c54.01,0,108.03,0,162.04,0,1.32,0,2.64,0,4.19,0,0,1.85,0,3.21,0,4.56,0,25.31,0,50.61,0,75.92,0,10.87,4.35,15.26,15.12,15.27,25.51,0,51.01,0,76.52,0h4.39c0,1.56,0,2.77,0,3.98,0,85.89,0,171.78-.02,257.67,0,11.77-6.07,20.69-16.38,24.25-1.29,.44-2.57,.89-3.86,1.33Zm-123.82-191.52c-23.74,0-47.48-.01-71.23,0-6.24,0-10.24,2.61-12,7.64-3.02,8.66,2.62,16.27,12.19,16.27,40.99,.03,81.97,.01,122.96,.01,6.75,0,13.5,.08,20.24-.03,5.54-.09,9.51-3,11.12-7.84,2.8-8.44-2.64-16.02-11.69-16.04-23.87-.06-47.73-.02-71.6-.02Zm.19-59.82c-23.87,0-47.74-.01-71.61,0-6.15,0-10.14,2.7-11.85,7.83-2.9,8.7,2.76,16.08,12.43,16.09,45.86,.02,91.73,0,137.59,0,2.12,0,4.26,.11,6.37-.07,4.93-.42,8.44-2.9,10.11-7.62,2.96-8.37-2.5-16.2-11.44-16.22-23.87-.06-47.74-.02-71.61-.02Zm-.37,143.62c23.99,0,47.98,.04,71.97-.02,8.95-.02,14.37-7.83,11.46-16.22-1.79-5.17-5.91-7.69-12.75-7.69-46.98-.01-93.97,0-140.95,0-1,0-2.01-.04-3,.09-4.74,.61-8.13,3.03-9.75,7.59-2.97,8.36,2.47,16.2,11.42,16.23,23.87,.07,47.73,.02,71.6,.02Z"/><path class="b" d="M216.49,0c3.04,1.64,5.92,2.48,7.8,4.33,20.27,19.97,40.43,40.06,60.47,60.27,1.88,1.89,2.7,4.82,4.37,7.93h-72.64V0Z"/></svg>