<?xml version="1.0" encoding="UTF-8"?><svg id="a" xmlns="http://www.w3.org/2000/svg" viewBox="0 0 268.99 268.42"><defs><style>.b{fill:#fff;}</style></defs><path class="b" d="M115.11,57.46c0,7.11,.26,14.23-.05,21.33-.83,19.59-16.54,35.38-36.25,35.99-14.24,.44-28.52,.44-42.75-.02C16.63,114.13,.59,97.72,.2,78.38c-.28-13.84-.27-27.7,0-41.55C.57,17.03,17.14,.57,37.06,.19c13.75-.26,27.51-.26,41.26,0,19.66,.37,35.9,16.31,36.74,35.94,.3,7.1,.05,14.22,.05,21.33Z"/><path class="b" d="M57.78,153.53c7,0,14.01-.24,21,.04,19.69,.81,35.62,16.43,36.24,36,.45,14.21,.45,28.45,0,42.66-.63,19.64-17.03,35.59-36.67,35.97-13.75,.27-27.51,.28-41.26,0-20.12-.4-36.55-16.88-36.91-36.98-.24-13.6-.24-27.2,0-40.8,.36-19.82,16.34-36.03,36.22-36.86,7.11-.3,14.25-.05,21.38-.05Z"/><path class="b" d="M153.85,57.27c0-6.86-.23-13.73,.04-20.58C154.71,16.39,170.91,.51,191.25,.17c13.5-.22,27.01-.23,40.51,.01,20.16,.37,36.65,16.75,37.04,36.84,.26,13.72,.26,27.45,0,41.17-.38,19.61-16.35,35.95-36.06,36.58-14.36,.46-28.77,.45-43.13-.01-18.95-.61-34.81-16.56-35.65-35.41-.33-7.35-.05-14.72-.05-22.08h-.04Z"/><path class="b" d="M230.51,191.76c6.33,0,12.17-.02,18.02,0,11.98,.06,20.4,8.03,20.35,19.22-.05,11.1-8.58,19.01-20.58,19.05-5.74,.02-11.48,0-17.78,0,0,6.59,.1,13.02-.02,19.45-.16,8.7-5.77,15.8-14.11,18.14-11.86,3.32-23.8-5.32-24.15-17.62-.18-6.46-.03-12.94-.03-19.97-6.07,0-11.89,.16-17.7-.07-2.95-.11-6.05-.43-8.76-1.48-8.74-3.35-13.41-12.26-11.66-21.47,1.63-8.58,9.36-15.05,18.41-15.22,6.36-.12,12.72-.02,19.68-.02,0-4.68-.03-9.11,.01-13.54,.03-3.11-.21-6.29,.33-9.33,1.71-9.66,10.41-16.07,20.43-15.39,9.54,.66,17.23,8.51,17.53,18.21,.2,6.47,.04,12.95,.04,20.02Z"/></svg>