<?xml version="1.0" encoding="UTF-8"?><svg id="a" xmlns="http://www.w3.org/2000/svg" viewBox="0 0 329.5 293.52"><defs><style>.b{fill:#fff;}</style></defs><path class="b" d="M165.09,0c47.05,0,94.1,0,141.15,0,14.74,0,23.26,8.49,23.26,23.17,0,62.39,0,124.77,0,187.16,0,14.72-8.51,23.26-23.19,23.26-28.45,0-56.91,.05-85.36-.07-2.94-.01-4.74,.94-6.52,3.19-13.63,17.21-27.3,34.39-41.17,51.41-1.84,2.26-4.65,4.28-7.4,5.12-3.65,1.11-6.59-1.2-8.93-4.13-13.77-17.26-27.63-34.45-41.31-51.78-2.12-2.68-4.2-3.84-7.73-3.82-28.33,.17-56.66,.1-84.99,.09C8.67,233.59,0,224.96,0,210.78,0,148.15,0,85.51,0,22.87,0,8.65,8.63,0,22.81,0,70.24,0,117.66,0,165.09,0Zm-.32,71.87c-25.32,0-50.63,0-75.95,0-6.82,0-10.96,3.46-10.9,9.06,.05,5.55,4.19,8.89,11.07,8.91,.37,0,.75,0,1.12,0,49.76,0,99.52,0,149.28,0,1.37,0,2.75,.07,4.11-.08,4.45-.49,7.84-4.07,8.09-8.43,.31-5.45-3.89-9.44-10.12-9.45-25.57-.03-51.13-.01-76.7-.01Zm-23.56,71.88c-17.7,0-35.41-.01-53.11,0-4.92,0-8.03,1.93-9.54,5.75-2.44,6.16,2.05,12.17,9.27,12.19,22.57,.05,45.13,.02,67.7,.02,12.72,0,25.43-.03,38.15,.02,4.13,.02,7.32-1.51,9.14-5.27,2.94-6.1-1.6-12.66-8.87-12.69-17.58-.07-35.16-.02-52.74-.02Z"/></svg>