<?xml version="1.0" encoding="UTF-8"?><svg id="a" xmlns="http://www.w3.org/2000/svg" viewBox="0 0 374.79 374.81"><defs><style>.b{fill:#fff;}</style></defs><path class="b" d="M0,344.03c0-44.65,0-89.3,0-133.95,1.25-2.6,2.19-5.43,3.81-7.78,25.04-36.34,50.17-72.62,75.29-108.91,3.3-4.76,7.72-7.96,13.64-8.02,17.32-.18,34.64-.29,51.95-.09,5.48,.07,8.32,3.44,8.55,8.99,.19,4.75,.09,9.51,.05,14.27-.07,7.73-3.14,10.72-11,10.73-12.08,.02-24.15,.06-36.23-.05-2.43-.02-3.92,.65-5.36,2.74-18.17,26.42-36.45,52.76-54.7,79.13-.6,.87-1.14,1.78-1.96,3.08,1.62,.08,2.78,.18,3.94,.18,11.59,.01,23.18-.08,34.77,.06,3.5,.04,7.12,.28,10.48,1.19,15.84,4.3,24.76,15.63,26.03,32.63,.82,10.89,7.45,17.24,18.24,17.25,33.3,.04,66.61,.04,99.91,0,10.58-.01,17.06-6.47,18.17-17.04,.52-4.89,1.38-10.03,3.45-14.42,6.36-13.5,17.77-19.5,32.4-19.64,11.71-.12,23.42-.02,35.13-.03,1.26,0,2.51-.11,4.08-.18-.49-.89-.69-1.33-.95-1.71-18.73-27.07-37.44-54.16-56.27-81.15-.77-1.11-2.74-1.93-4.16-1.95-12.56-.15-25.13-.05-37.69-.1-6.68-.03-9.92-3.18-10.09-9.78-.12-4.75-.1-9.52,0-14.27,.14-6.8,3.32-10.01,10.21-10.05,15.98-.08,31.96-.03,47.94-.02,6.82,0,12.21,2.7,16.14,8.38,25.09,36.31,50.28,72.55,75.21,108.96,2.08,3.04,3.58,7.18,3.6,10.82,.25,42.08,.28,84.17,0,126.26-.04,5.31-1.29,11.04-3.56,15.83-6.38,13.48-17.84,19.39-32.52,19.39-95.03,0-190.06,0-285.09,0-6.22,0-12.44,.1-18.66-.02-10.79-.21-19.84-4.16-26.91-12.55-4.47-5.31-6.43-11.6-7.86-18.17Z"/><path class="b" d="M197.64,0c5.17,1.97,6.78,5.82,6.77,11.18-.11,51.71-.06,103.41-.06,155.12v5.18c1.37-1.19,2.25-1.88,3.03-2.66,7.77-7.75,15.52-15.53,23.29-23.27,5.67-5.65,9.94-5.63,15.62,.02,3.11,3.1,6.25,6.17,9.3,9.33,4.51,4.68,4.62,9.19,.08,13.76-18.58,18.68-37.16,37.34-55.88,55.88-7.45,7.38-17.34,7.39-24.79,.02-18.71-18.54-37.3-37.2-55.88-55.88-4.54-4.57-4.46-9.1,.04-13.76,3.22-3.33,6.51-6.59,9.82-9.84,5.07-4.99,9.53-5.05,14.57-.06,7.89,7.81,15.7,15.69,23.55,23.54,.84,.84,1.73,1.63,3.3,3.1,0-2.22,0-3.61,0-4.99,0-51.83,.04-103.66-.06-155.49-.01-5.36,1.63-9.21,6.79-11.17h20.5Z"/></svg>