<?xml version="1.0" encoding="UTF-8"?><svg id="a" xmlns="http://www.w3.org/2000/svg" viewBox="0 0 292.37 389.35"><defs><style>.b{fill:#fff;}</style></defs><path class="b" d="M266.78,389.35H25.68c-.33-.18-.63-.45-.98-.54C8.67,384.8,.02,373.86,.02,357.33,0,248.85,0,140.36,.02,31.87,.02,12.68,12.8,.01,32.02,0,81.33,0,130.64,0,179.95,0c1.36,0,2.72,0,4.51,0,0,1.73,0,3.09,0,4.46,0,17.24-.03,34.47,.03,51.71,.01,3.28,.05,6.62,.62,9.84,4.49,24.96,24.55,41.81,49.89,41.93,17.62,.09,35.24,.02,52.86,.02,1.36,0,2.72,0,4.52,0v5.23c0,80.86,0,161.72-.01,242.57,0,2.4-.03,4.83-.37,7.2-1.79,12.45-8.76,20.7-20.56,24.92-1.53,.55-3.09,.98-4.64,1.47Zm-115.71-65.54c31.42,0,62.84,0,94.25-.02,1.88,0,3.83-.07,5.64-.52,4.54-1.12,7.54-5.25,7.39-9.8-.16-4.73-3.6-8.68-8.35-9.41-1.74-.27-3.53-.3-5.3-.3-62.33-.01-124.66-.01-186.99,0-1.77,0-3.56,.03-5.3,.31-4.73,.74-8.18,4.73-8.33,9.45-.14,4.49,2.95,8.69,7.46,9.77,1.82,.44,3.76,.5,5.64,.5,31.29,.03,62.58,.02,93.87,.02Zm.3-95.62c-31.29,0-62.58,0-93.87,0-1.27,0-2.54-.05-3.8,.05-5.46,.43-9.59,4.72-9.61,9.92-.02,5.27,4,9.47,9.54,9.9,1.39,.11,2.78,.09,4.18,.09,62.33,0,124.66,0,186.98,0,1.39,0,2.79,.01,4.18-.11,5.38-.45,9.27-4.46,9.4-9.63,.13-5.23-3.87-9.63-9.32-10.16-1.26-.12-2.53-.06-3.8-.06-31.29,0-62.58,0-93.87,0Zm-43.01-75.4c-17.74,0-35.49-.02-53.23,.01-5.32,0-8.93,2.37-10.41,6.64-2.41,6.93,2.52,13.21,10.54,13.22,28.14,.04,56.28,.02,84.41,.02,7.48,0,14.96,.11,22.43-.06,6.48-.15,10.73-5.54,9.63-11.85-.83-4.77-4.91-7.95-10.52-7.96-17.62-.04-35.24-.02-52.85-.02Z"/><path class="b" d="M204.39,14.75c24.44,24.61,48.49,48.82,72.58,73.08-.51,.04-1.51,.19-2.52,.19-12.79,.02-25.59,.06-38.38,0-19.02-.1-31.65-12.77-31.68-31.74-.02-13.67,0-27.35,0-41.52Z"/></svg>