<?xml version="1.0" encoding="UTF-8"?><svg id="a" xmlns="http://www.w3.org/2000/svg" viewBox="0 0 329.13 367.93"><defs><style>.b{fill:#fff;}</style></defs><path class="b" d="M171.75,0c9.26,2.25,18.99,3.35,27.7,6.94,33.01,13.62,53.12,38.29,59.27,73.62,6.83,39.23-12.44,79.23-47.97,98.29-34.59,18.56-69.05,16.66-101.31-5.79-25.9-18.03-39.54-43.79-40.13-75.32-.66-35.04,14.49-62.57,43.48-82.23,12.8-8.68,27.14-13.44,42.54-15,.7-.07,1.37-.34,2.06-.52h14.37Z"/><path class="b" d="M169.88,367.93c-47.55-.4-85.48-12.6-118.95-37.55-19.74-14.71-36.26-32.63-49.08-53.8-1.93-3.19-2.54-6.39-.88-9.86,16.66-34.84,43.58-57.17,81.12-66.56,2.9-.72,5.87-1.13,8.79-1.75,5.8-1.23,10.74,.51,15.48,3.85,18.86,13.27,39.93,19.22,62.91,18.25,17.68-.74,34.7-5.03,48.93-15.49,10.61-7.8,20.8-7.3,32.14-4.14,32,8.91,56.13,28,73.17,56.32,7.39,12.28,7.67,12.52-.23,24.4-19.14,28.79-43.87,51.51-75.08,66.64-28.25,13.69-55.44,19.73-78.31,19.68Z"/></svg>